<svg data-v-fde0c5aa="" xmlns="http://www.w3.org/2000/svg" viewBox="0 0 300 300" class="font"><!----><defs data-v-fde0c5aa=""><!----></defs><rect data-v-fde0c5aa="" fill="#000000" x="0" y="0" width="300px" height="300px" class="logo-background-square"></rect><defs data-v-fde0c5aa=""><linearGradient data-v-fde0c5aa="" gradientTransform="rotate(25)" id="24ffe4d6-e717-482b-9d90-7d1593a3f845" x1="0%" y1="0%" x2="100%" y2="0%"><stop data-v-fde0c5aa="" offset="0%" stop-color="#12dd13" stop-opacity="1"></stop><stop data-v-fde0c5aa="" offset="100%" stop-color="#7B16FF" stop-opacity="1"></stop></linearGradient></defs><g data-v-fde0c5aa="" id="c4528559-4782-4dfa-a49c-ec2b9169e625" fill="url(#24ffe4d6-e717-482b-9d90-7d1593a3f845)" transform="matrix(4.669590925954445,0,0,4.669590925954445,34.910145734845244,114.66676340381319)"><path d="M3.36 9.70L3.36 9.70L3.36 9.70Q3.15 9.69 3.15 9.44L3.15 9.44L3.15 9.44Q3.14 9.24 3.12 9.03L3.12 9.03L3.12 9.03Q3.10 8.82 3.10 8.61L3.10 8.61L3.10 8.61Q3.09 8.40 2.84 8.35L2.84 8.35L2.84 8.35Q2.72 8.32 2.62 8.30L2.62 8.30L2.62 8.30Q2.52 8.29 2.43 8.29L2.43 8.29L2.43 8.29Q2.28 8.28 2.15 8.28L2.15 8.28L2.15 8.28Q2.03 8.29 1.96 8.29L1.96 8.29L1.50 8.33L1.50 8.33Q1.18 8.35 1.11 8.20L1.11 8.20L1.10 8.18L1.09 8.16L1.09 8.11L1.09 8.11Q1.09 8.09 1.12 8.04L1.12 8.04L1.12 8.04Q1.14 7.98 1.17 7.93L1.17 7.93L1.17 7.93Q1.20 7.88 1.24 7.83L1.24 7.83L1.24 7.83Q1.27 7.79 1.29 7.76L1.29 7.76L1.29 7.76Q1.50 7.44 1.69 7.20L1.69 7.20L1.69 7.20Q1.88 6.95 2.04 6.76L2.04 6.76L2.04 6.76Q2.17 6.60 2.27 6.38L2.27 6.38L2.27 6.38Q2.37 6.17 2.49 5.99L2.49 5.99L2.49 5.99Q2.55 5.89 2.60 5.80L2.60 5.80L2.60 5.80Q2.65 5.71 2.72 5.64L2.72 5.64L2.72 5.64Q2.78 5.56 2.86 5.51L2.86 5.51L2.86 5.51Q2.95 5.46 3.07 5.43L3.07 5.43L3.10 5.42L3.10 5.42Q3.58 5.40 3.56 5.80L3.56 5.80L3.56 5.80Q3.55 5.86 3.55 5.94L3.55 5.94L3.55 5.94Q3.54 6.02 3.53 6.13L3.53 6.13L3.53 6.13Q3.53 6.21 3.53 6.31L3.53 6.31L3.53 6.31Q3.53 6.40 3.55 6.50L3.55 6.50L3.55 6.50Q3.58 6.79 3.55 7.06L3.55 7.06L3.55 7.06Q3.53 7.33 3.55 7.60L3.55 7.60L3.55 7.60Q3.58 7.84 3.58 8.08L3.58 8.08L3.58 8.08Q3.58 8.20 3.57 8.30L3.57 8.30L3.57 8.30Q3.56 8.40 3.55 8.49L3.55 8.49L3.55 8.49Q3.52 8.67 3.55 8.87L3.55 8.87L3.55 8.87Q3.58 9.07 3.58 9.26L3.58 9.26L3.58 9.26Q3.58 9.32 3.58 9.43L3.58 9.43L3.58 9.43Q3.58 9.54 3.55 9.60L3.55 9.60L3.55 9.60Q3.52 9.66 3.45 9.69L3.45 9.69L3.45 9.69Q3.47 9.68 3.45 9.68L3.45 9.68L3.45 9.68Q3.43 9.69 3.36 9.70ZM2.60 6.56L2.60 6.56L2.60 6.56Q2.54 6.66 2.47 6.75L2.47 6.75L2.47 6.75Q2.41 6.84 2.34 6.93L2.34 6.93L2.34 6.93Q2.24 7.08 2.16 7.20L2.16 7.20L2.16 7.20Q2.08 7.32 2.02 7.43L2.02 7.43L2.02 7.43Q2.00 7.49 1.97 7.55L1.97 7.55L1.97 7.55Q1.93 7.61 1.92 7.67L1.92 7.67L1.92 7.67Q1.90 7.74 1.91 7.80L1.91 7.80L1.91 7.80Q1.91 7.87 1.97 7.92L1.97 7.92L1.97 7.92Q2.01 7.96 2.10 7.97L2.10 7.97L2.10 7.97Q2.61 8.01 2.92 7.97L2.92 7.97L2.92 7.97Q3.04 7.96 3.10 7.90L3.10 7.90L3.10 7.90Q3.13 7.85 3.13 7.65L3.13 7.65L3.13 7.65Q3.13 7.36 3.13 7.08L3.13 7.08L3.13 7.08Q3.14 6.79 3.14 6.50L3.14 6.50L3.14 6.50Q3.14 6.25 2.97 6.22L2.97 6.22L2.97 6.22Q2.85 6.19 2.78 6.30L2.78 6.30L2.72 6.37L2.72 6.37Q2.66 6.45 2.64 6.49L2.64 6.49L2.62 6.54L2.62 6.54Q2.61 6.54 2.61 6.55L2.61 6.55L2.61 6.55Q2.61 6.56 2.60 6.56ZM6.19 7.01L6.19 7.01L6.19 7.01Q6.44 7.01 6.69 7.02L6.69 7.02L6.69 7.02Q6.93 7.03 7.18 7.07L7.18 7.07L7.18 7.07Q7.37 7.10 7.47 6.99L7.47 6.99L7.47 6.99Q7.55 6.90 7.54 6.78L7.54 6.78L7.54 6.78Q7.54 6.66 7.54 6.55L7.54 6.55L7.54 6.55Q7.55 6.38 7.55 6.25L7.55 6.25L7.55 6.25Q7.55 6.13 7.55 6.04L7.55 6.04L7.55 6.04Q7.55 6.00 7.55 5.93L7.55 5.93L7.55 5.93Q7.55 5.87 7.56 5.79L7.56 5.79L7.56 5.79Q7.56 5.72 7.57 5.65L7.57 5.65L7.57 5.65Q7.58 5.58 7.60 5.54L7.60 5.54L7.60 5.54Q7.66 5.40 7.83 5.41L7.83 5.41L7.83 5.41Q8.00 5.43 8.00 5.72L8.00 5.72L8.00 5.72Q8.00 5.89 7.98 6.06L7.98 6.06L7.98 6.06Q7.97 6.23 7.98 6.40L7.98 6.40L7.98 6.41L7.98 6.41Q7.98 6.68 8.00 6.95L8.00 6.95L8.00 6.95Q8.01 7.23 8.03 7.49L8.03 7.49L8.03 7.49Q8.04 7.66 8.03 7.82L8.03 7.82L8.03 7.82Q8.01 7.99 8.01 8.16L8.01 8.16L8.01 8.16Q8.00 8.44 8.00 8.73L8.00 8.73L8.00 8.73Q8.00 9.01 8.00 9.30L8.00 9.30L8.00 9.30Q8.00 9.55 7.96 9.63L7.96 9.63L7.96 9.63Q7.93 9.67 7.85 9.69L7.85 9.69L7.85 9.69Q7.60 9.75 7.57 9.47L7.57 9.47L7.57 9.47Q7.53 9.13 7.54 8.77L7.54 8.77L7.54 8.77Q7.55 8.42 7.54 8.06L7.54 8.06L7.54 8.06Q7.53 7.93 7.51 7.77L7.51 7.77L7.51 7.77Q7.49 7.62 7.38 7.52L7.38 7.52L7.38 7.52Q7.27 7.44 7.02 7.44L7.02 7.44L7.02 7.44Q6.90 7.44 6.78 7.44L6.78 7.44L6.78 7.44Q6.66 7.45 6.54 7.44L6.54 7.44L6.15 7.44L6.15 7.44Q6.02 7.45 5.90 7.44L5.90 7.44L5.90 7.44Q5.78 7.43 5.66 7.42L5.66 7.42L5.66 7.42Q5.40 7.40 5.27 7.49L5.27 7.49L5.27 7.49Q5.11 7.63 5.11 7.95L5.11 7.95L5.11 7.95Q5.11 8.16 5.12 8.38L5.12 8.38L5.12 8.38Q5.13 8.59 5.13 8.80L5.13 8.80L5.13 8.80Q5.13 8.97 5.12 9.10L5.12 9.10L5.12 9.10Q5.11 9.22 5.11 9.31L5.11 9.31L5.11 9.31Q5.11 9.41 5.10 9.47L5.10 9.47L5.10 9.47Q5.09 9.54 5.08 9.59L5.08 9.59L5.08 9.59Q5.00 9.73 4.84 9.69L4.84 9.69L4.84 9.69Q4.68 9.67 4.68 9.44L4.68 9.44L4.68 9.44Q4.68 9.21 4.68 9.00L4.68 9.00L4.68 9.00Q4.68 8.78 4.68 8.55L4.68 8.55L4.68 8.55Q4.69 8.34 4.68 8.12L4.68 8.12L4.68 8.12Q4.68 7.91 4.68 7.69L4.68 7.69L4.68 7.69Q4.68 7.34 4.68 6.99L4.68 6.99L4.68 6.99Q4.69 6.64 4.70 6.30L4.70 6.30L4.70 6.30Q4.70 6.24 4.69 6.15L4.69 6.15L4.69 6.15Q4.68 6.05 4.68 5.91L4.68 5.91L4.68 5.91Q4.66 5.61 4.70 5.54L4.70 5.54L4.70 5.54Q4.79 5.41 4.90 5.41L4.90 5.41L4.90 5.41Q5.11 5.42 5.13 5.74L5.13 5.74L5.13 5.74Q5.13 5.82 5.14 5.88L5.14 5.88L5.14 5.88Q5.14 5.94 5.14 5.99L5.14 5.99L5.14 5.99Q5.14 6.02 5.14 6.08L5.14 6.08L5.14 6.08Q5.14 6.15 5.13 6.23L5.13 6.23L5.13 6.23Q5.11 6.33 5.10 6.43L5.10 6.43L5.10 6.43Q5.09 6.54 5.09 6.63L5.09 6.63L5.09 6.63Q5.07 6.85 5.17 6.93L5.17 6.93L5.17 6.93Q5.27 7.01 5.44 6.98L5.44 6.98L5.44 6.98Q5.54 6.97 5.61 6.97L5.61 6.97L5.61 6.97Q5.67 6.97 5.72 6.97L5.72 6.97L5.72 6.97Q5.84 6.98 5.95 6.99L5.95 6.99L5.95 6.99Q6.07 7.01 6.19 7.01ZM13.79 9.47L13.79 9.47L13.79 9.47Q13.79 9.65 13.64 9.69L13.64 9.69L13.64 9.69Q13.52 9.75 13.43 9.61L13.43 9.61L13.43 9.61Q13.38 9.54 13.35 9.49L13.35 9.49L13.35 9.49Q13.32 9.43 13.30 9.39L13.30 9.39L13.30 9.39Q13.20 9.18 13.13 9.03L13.13 9.03L13.13 9.03Q13.05 8.87 12.97 8.78L12.97 8.78L12.97 8.78Q12.81 8.55 12.61 8.49L12.61 8.49L12.61 8.49Q12.44 8.44 12.07 8.48L12.07 8.48L12.07 8.48Q11.85 8.50 11.65 8.51L11.65 8.51L11.65 8.51Q11.46 8.52 11.28 8.50L11.28 8.50L11.28 8.50Q10.88 8.48 10.69 8.76L10.69 8.76L10.68 8.78L10.67 8.79L10.67 8.79Q10.60 8.93 10.56 9.06L10.56 9.06L10.56 9.06Q10.51 9.19 10.45 9.32L10.45 9.32L10.31 9.54L10.31 9.54Q10.21 9.69 10.11 9.70L10.11 9.70L10.11 9.70Q10.06 9.72 9.97 9.65L9.97 9.65L9.97 9.65Q9.93 9.60 9.92 9.55L9.92 9.55L9.92 9.55Q9.91 9.49 9.92 9.43L9.92 9.43L9.92 9.43Q9.93 9.37 9.96 9.30L9.96 9.30L9.96 9.30Q9.98 9.24 10.00 9.19L10.00 9.19L10.17 8.85L10.17 8.85Q10.40 8.35 10.61 7.85L10.61 7.85L10.61 7.85Q10.82 7.34 11.05 6.83L11.05 6.83L11.05 6.83Q11.09 6.74 11.13 6.66L11.13 6.66L11.13 6.66Q11.16 6.58 11.19 6.51L11.19 6.51L11.19 6.51Q11.27 6.32 11.34 6.14L11.34 6.14L11.34 6.14Q11.42 5.95 11.51 5.76L11.51 5.76L11.61 5.61L11.61 5.61Q11.69 5.48 11.76 5.48L11.76 5.48L11.76 5.48Q11.83 5.46 11.94 5.59L11.94 5.59L11.94 5.59Q12.05 5.73 12.16 5.91L12.16 5.91L12.16 5.91Q12.26 6.10 12.34 6.26L12.34 6.26L12.34 6.26Q12.58 6.77 12.79 7.28L12.79 7.28L12.79 7.28Q13.00 7.79 13.23 8.28L13.23 8.28L13.23 8.28Q13.31 8.43 13.38 8.58L13.38 8.58L13.38 8.58Q13.45 8.74 13.54 8.88L13.54 8.88L13.54 8.88Q13.58 8.98 13.62 9.08L13.62 9.08L13.62 9.08Q13.67 9.17 13.71 9.27L13.71 9.27L13.71 9.27Q13.74 9.34 13.76 9.39L13.76 9.39L13.76 9.39Q13.78 9.44 13.79 9.47ZM12.43 7.56L12.43 7.56L12.43 7.56Q12.37 7.40 12.30 7.22L12.30 7.22L12.30 7.22Q12.24 7.05 12.15 6.88L12.15 6.88L12.15 6.88Q11.98 6.57 11.79 6.58L11.79 6.58L11.79 6.58Q11.71 6.58 11.65 6.62L11.65 6.62L11.65 6.62Q11.59 6.67 11.55 6.72L11.55 6.72L11.55 6.72Q11.51 6.78 11.48 6.85L11.48 6.85L11.48 6.85Q11.44 6.92 11.42 6.98L11.42 6.98L11.42 6.98Q11.35 7.18 11.28 7.40L11.28 7.40L11.28 7.40Q11.21 7.62 11.15 7.83L11.15 7.83L11.15 7.83Q11.10 7.98 11.16 8.05L11.16 8.05L11.16 8.05Q11.20 8.12 11.38 8.13L11.38 8.13L11.38 8.13Q11.53 8.14 11.64 8.15L11.64 8.15L11.64 8.15Q11.76 8.15 11.83 8.14L11.83 8.14L11.83 8.14Q11.98 8.14 12.23 8.10L12.23 8.10L12.23 8.10Q12.48 8.06 12.53 7.88L12.53 7.88L12.53 7.88Q12.55 7.77 12.50 7.69L12.50 7.69L12.50 7.69Q12.49 7.66 12.47 7.63L12.47 7.63L12.47 7.63Q12.44 7.59 12.43 7.56ZM15.89 7.99L15.89 7.99L15.89 7.99Q15.90 8.16 15.89 8.33L15.89 8.33L15.89 8.33Q15.89 8.50 15.89 8.67L15.89 8.67L15.89 8.67Q15.90 9.21 15.89 9.49L15.89 9.49L15.89 9.49Q15.89 9.61 15.79 9.67L15.79 9.67L15.79 9.67Q15.68 9.73 15.60 9.68L15.60 9.68L15.60 9.68Q15.52 9.65 15.50 9.52L15.50 9.52L15.50 9.52Q15.49 9.30 15.48 9.08L15.48 9.08L15.48 9.08Q15.48 8.87 15.48 8.64L15.48 8.64L15.48 8.64Q15.48 8.37 15.49 8.09L15.49 8.09L15.49 8.09Q15.49 7.82 15.49 7.53L15.49 7.53L15.49 7.53Q15.49 7.37 15.49 7.20L15.49 7.20L15.49 7.20Q15.50 7.03 15.49 6.87L15.49 6.87L15.49 6.87Q15.49 6.68 15.49 6.47L15.49 6.47L15.49 6.47Q15.48 6.26 15.50 6.03L15.50 6.03L15.50 6.03Q15.50 5.99 15.50 5.93L15.50 5.93L15.50 5.93Q15.50 5.87 15.50 5.78L15.50 5.78L15.50 5.78Q15.50 5.63 15.51 5.61L15.51 5.61L15.51 5.61Q15.52 5.55 15.63 5.48L15.63 5.48L15.63 5.48Q15.72 5.42 15.99 5.41L15.99 5.41L15.99 5.41Q16.13 5.40 16.23 5.40L16.23 5.40L16.23 5.40Q16.32 5.39 16.39 5.39L16.39 5.39L16.39 5.39Q16.58 5.39 16.77 5.40L16.77 5.40L16.77 5.40Q16.97 5.41 17.17 5.42L17.17 5.42L17.17 5.42Q17.27 5.43 17.41 5.44L17.41 5.44L17.41 5.44Q17.54 5.45 17.70 5.48L17.70 5.48L17.70 5.48Q18.01 5.52 18.19 5.66L18.19 5.66L18.20 5.66L18.20 5.66Q18.43 5.86 18.55 6.09L18.55 6.09L18.55 6.09Q18.67 6.32 18.66 6.61L18.66 6.61L18.66 6.61Q18.65 6.81 18.56 6.96L18.56 6.96L18.56 6.96Q18.47 7.10 18.31 7.21L18.31 7.21L18.31 7.21Q18.02 7.42 17.67 7.49L17.67 7.49L17.67 7.49Q17.70 7.48 17.58 7.51L17.58 7.51L17.58 7.51Q17.37 7.54 17.16 7.53L17.16 7.53L17.16 7.53Q16.95 7.52 16.75 7.55L16.75 7.55L16.75 7.55Q16.68 7.55 16.59 7.56L16.59 7.56L16.59 7.56Q16.50 7.56 16.37 7.55L16.37 7.55L16.37 7.55Q16.13 7.54 16.02 7.62L16.02 7.62L16.02 7.62Q15.88 7.72 15.89 7.99ZM16.97 7.12L17.03 7.12L17.03 7.12Q17.29 7.12 17.55 7.10L17.55 7.10L17.55 7.10Q17.80 7.07 18.04 6.89L18.04 6.89L18.04 6.89Q18.29 6.70 18.25 6.44L18.25 6.44L18.25 6.44Q18.19 6.18 17.96 6.02L17.96 6.02L17.96 6.02Q17.90 5.97 17.83 5.94L17.83 5.94L17.83 5.94Q17.76 5.91 17.68 5.89L17.68 5.89L17.68 5.89Q17.34 5.81 17.04 5.85L17.04 5.85L17.04 5.85Q16.88 5.87 16.73 5.88L16.73 5.88L16.73 5.88Q16.57 5.89 16.41 5.89L16.41 5.89L16.41 5.89Q16.32 5.89 16.26 5.88L16.26 5.88L16.26 5.88Q16.20 5.88 16.17 5.87L16.17 5.87L16.17 5.87Q16.13 5.86 16.09 5.87L16.09 5.87L16.09 5.87Q15.92 5.91 15.91 6.17L15.91 6.17L15.91 6.17Q15.90 6.23 15.90 6.32L15.90 6.32L15.90 6.32Q15.89 6.41 15.89 6.52L15.89 6.52L15.89 6.52Q15.90 6.56 15.90 6.61L15.90 6.61L15.90 6.61Q15.90 6.66 15.90 6.73L15.90 6.73L15.90 6.73Q15.91 6.97 16.05 7.08L16.05 7.08L16.05 7.08Q16.18 7.19 16.50 7.18L16.50 7.18L16.50 7.18Q16.62 7.17 16.73 7.16L16.73 7.16L16.73 7.16Q16.84 7.14 16.97 7.12L16.97 7.12ZM20.63 7.99L20.63 7.99L20.63 7.99Q20.64 8.16 20.63 8.33L20.63 8.33L20.63 8.33Q20.62 8.50 20.63 8.67L20.63 8.67L20.63 8.67Q20.64 9.21 20.63 9.49L20.63 9.49L20.63 9.49Q20.63 9.61 20.53 9.67L20.53 9.67L20.53 9.67Q20.42 9.73 20.34 9.68L20.34 9.68L20.34 9.68Q20.25 9.65 20.24 9.52L20.24 9.52L20.24 9.52Q20.23 9.30 20.22 9.08L20.22 9.08L20.22 9.08Q20.21 8.87 20.21 8.64L20.21 8.64L20.21 8.64Q20.22 8.37 20.22 8.09L20.22 8.09L20.22 8.09Q20.23 7.82 20.23 7.53L20.23 7.53L20.23 7.53Q20.23 7.37 20.23 7.20L20.23 7.20L20.23 7.20Q20.23 7.03 20.23 6.87L20.23 6.87L20.23 6.87Q20.23 6.68 20.22 6.47L20.22 6.47L20.22 6.47Q20.22 6.26 20.23 6.03L20.23 6.03L20.23 6.03Q20.24 5.99 20.24 5.93L20.24 5.93L20.24 5.93Q20.24 5.87 20.24 5.78L20.24 5.78L20.24 5.78Q20.24 5.63 20.25 5.61L20.25 5.61L20.25 5.61Q20.25 5.55 20.36 5.48L20.36 5.48L20.36 5.48Q20.45 5.42 20.73 5.41L20.73 5.41L20.73 5.41Q20.86 5.40 20.96 5.40L20.96 5.40L20.96 5.40Q21.06 5.39 21.13 5.39L21.13 5.39L21.13 5.39Q21.31 5.39 21.51 5.40L21.51 5.40L21.51 5.40Q21.70 5.41 21.90 5.42L21.90 5.42L21.90 5.42Q22.01 5.43 22.15 5.44L22.15 5.44L22.15 5.44Q22.28 5.45 22.44 5.48L22.44 5.48L22.44 5.48Q22.75 5.52 22.93 5.66L22.93 5.66L22.93 5.66L22.93 5.66Q23.17 5.86 23.29 6.09L23.29 6.09L23.29 6.09Q23.41 6.32 23.39 6.61L23.39 6.61L23.39 6.61Q23.39 6.81 23.30 6.96L23.30 6.96L23.30 6.96Q23.21 7.10 23.05 7.21L23.05 7.21L23.05 7.21Q22.76 7.42 22.41 7.49L22.41 7.49L22.41 7.49Q22.44 7.48 22.31 7.51L22.31 7.51L22.31 7.51Q22.11 7.54 21.90 7.53L21.90 7.53L21.90 7.53Q21.69 7.52 21.49 7.55L21.49 7.55L21.49 7.55Q21.42 7.55 21.32 7.56L21.32 7.56L21.32 7.56Q21.23 7.56 21.10 7.55L21.10 7.55L21.10 7.55Q20.86 7.54 20.75 7.62L20.75 7.62L20.75 7.62Q20.62 7.72 20.63 7.99ZM21.70 7.12L21.77 7.12L21.77 7.12Q22.03 7.12 22.29 7.10L22.29 7.10L22.29 7.10Q22.54 7.07 22.78 6.89L22.78 6.89L22.78 6.89Q23.03 6.70 22.98 6.44L22.98 6.44L22.98 6.44Q22.93 6.18 22.70 6.02L22.70 6.02L22.70 6.02Q22.64 5.97 22.57 5.94L22.57 5.94L22.57 5.94Q22.50 5.91 22.42 5.89L22.42 5.89L22.42 5.89Q22.07 5.81 21.77 5.85L21.77 5.85L21.77 5.85Q21.62 5.87 21.46 5.88L21.46 5.88L21.46 5.88Q21.31 5.89 21.14 5.89L21.14 5.89L21.14 5.89Q21.06 5.89 21 5.88L21 5.88L21 5.88Q20.94 5.88 20.90 5.87L20.90 5.87L20.90 5.87Q20.86 5.86 20.83 5.87L20.83 5.87L20.83 5.87Q20.66 5.91 20.64 6.17L20.64 6.17L20.64 6.17Q20.64 6.23 20.63 6.32L20.63 6.32L20.63 6.32Q20.63 6.41 20.63 6.52L20.63 6.52L20.63 6.52Q20.64 6.56 20.64 6.61L20.64 6.61L20.64 6.61Q20.64 6.66 20.64 6.73L20.64 6.73L20.64 6.73Q20.65 6.97 20.79 7.08L20.79 7.08L20.79 7.08Q20.92 7.19 21.24 7.18L21.24 7.18L21.24 7.18Q21.36 7.17 21.47 7.16L21.47 7.16L21.47 7.16Q21.58 7.14 21.70 7.12L21.70 7.12ZM27.75 5.46L27.75 5.46L27.75 5.46Q28.04 5.45 27.88 5.76L27.88 5.76L27.88 5.76Q27.85 5.82 27.79 5.91L27.79 5.91L27.79 5.91Q27.73 6.00 27.64 6.12L27.64 6.12L27.64 6.12Q27.44 6.38 27.33 6.60L27.33 6.60L27.33 6.60Q27.23 6.80 27.09 7.01L27.09 7.01L27.09 7.01Q26.96 7.21 26.80 7.42L26.80 7.42L26.80 7.43L26.80 7.43Q26.72 7.55 26.68 7.67L26.68 7.67L26.68 7.67Q26.65 7.78 26.63 7.88L26.63 7.88L26.63 7.88Q26.62 8.00 26.64 8.12L26.64 8.12L26.64 8.12Q26.65 8.24 26.65 8.35L26.65 8.35L26.65 8.35Q26.65 8.52 26.64 8.67L26.64 8.67L26.64 8.67Q26.63 8.83 26.65 8.99L26.65 8.99L26.65 8.99Q26.66 9.05 26.67 9.13L26.67 9.13L26.67 9.13Q26.67 9.21 26.68 9.32L26.68 9.32L26.68 9.32Q26.69 9.54 26.61 9.64L26.61 9.64L26.61 9.64Q26.56 9.69 26.46 9.70L26.46 9.70L26.46 9.70Q26.24 9.72 26.22 9.38L26.22 9.38L26.22 9.38Q26.21 9.07 26.24 8.75L26.24 8.75L26.24 8.75Q26.26 8.43 26.28 8.11L26.28 8.11L26.28 8.11Q26.30 7.85 26.20 7.68L26.20 7.68L26.20 7.68Q26.14 7.61 26.09 7.51L26.09 7.51L26.09 7.51Q26.04 7.42 25.97 7.31L25.97 7.31L25.97 7.31Q25.89 7.19 25.82 7.07L25.82 7.07L25.82 7.07Q25.75 6.95 25.68 6.83L25.68 6.83L25.68 6.83Q25.59 6.70 25.54 6.60L25.54 6.60L25.54 6.60Q25.48 6.50 25.45 6.43L25.45 6.43L25.45 6.43Q25.40 6.34 25.36 6.27L25.36 6.27L25.36 6.27Q25.33 6.20 25.30 6.17L25.30 6.17L25.30 6.17Q25.27 6.13 25.23 6.08L25.23 6.08L25.23 6.08Q25.19 6.02 25.14 5.95L25.14 5.95L25.14 5.95Q24.96 5.74 24.96 5.63L24.96 5.63L24.96 5.63Q24.95 5.57 24.99 5.50L24.99 5.50L24.99 5.50Q25.18 5.28 25.35 5.53L25.35 5.53L25.35 5.53Q25.50 5.74 25.61 5.96L25.61 5.96L25.61 5.96Q25.72 6.19 25.84 6.40L25.84 6.40L25.84 6.40Q25.94 6.56 26.01 6.66L26.01 6.66L26.01 6.66Q26.08 6.77 26.15 6.83L26.15 6.83L26.15 6.83Q26.31 7.01 26.50 6.97L26.50 6.97L26.50 6.97Q26.66 6.94 26.81 6.72L26.81 6.72L26.81 6.72Q26.87 6.64 26.93 6.55L26.93 6.55L26.93 6.55Q26.98 6.46 27.04 6.37L27.04 6.37L27.04 6.37Q27.10 6.30 27.14 6.22L27.14 6.22L27.14 6.22Q27.18 6.13 27.22 6.04L27.22 6.04L27.22 6.04Q27.25 5.95 27.30 5.87L27.30 5.87L27.30 5.87Q27.34 5.78 27.39 5.69L27.39 5.69L27.39 5.69Q27.54 5.48 27.75 5.46ZM32.48 5.86L32.48 5.87L32.50 5.89L32.50 5.89Q32.57 5.97 32.64 6.08L32.64 6.08L32.64 6.08Q32.70 6.19 32.76 6.33L32.76 6.33L32.76 6.33Q32.80 6.43 32.85 6.51L32.85 6.51L32.85 6.51Q32.90 6.60 32.94 6.69L32.94 6.69L32.94 6.69Q32.99 6.84 33.02 6.97L33.02 6.97L33.02 6.97Q33.04 7.09 33.05 7.20L33.05 7.20L33.05 7.20Q33.06 7.31 33.06 7.43L33.06 7.43L33.06 7.43Q33.05 7.56 33.03 7.72L33.03 7.72L33.03 7.72Q33.02 7.85 33.02 7.99L33.02 7.99L33.02 7.99Q33.02 8.12 32.99 8.26L32.99 8.26L32.99 8.26Q32.96 8.44 32.88 8.61L32.88 8.61L32.88 8.61Q32.81 8.78 32.72 8.94L32.72 8.94L32.72 8.94Q32.55 9.21 32.24 9.44L32.24 9.44L32.18 9.47L32.18 9.47Q32.11 9.52 32.05 9.53L32.05 9.53L32.05 9.53Q31.98 9.56 31.91 9.59L31.91 9.59L31.91 9.59Q31.84 9.61 31.78 9.63L31.78 9.63L31.78 9.63Q31.42 9.71 31.05 9.70L31.05 9.70L31.05 9.70Q30.67 9.69 30.32 9.69L30.32 9.69L30.32 9.69Q30.19 9.69 30.00 9.70L30.00 9.70L30.00 9.70Q29.82 9.70 29.71 9.63L29.71 9.63L29.71 9.63Q29.61 9.58 29.59 9.45L29.59 9.45L29.59 9.45Q29.58 9.42 29.58 9.33L29.58 9.33L29.58 9.33Q29.58 9.00 29.59 8.68L29.59 8.68L29.59 8.68Q29.59 8.35 29.61 8.03L29.61 8.03L29.61 8.03Q29.62 7.86 29.60 7.69L29.60 7.69L29.60 7.69Q29.58 7.51 29.58 7.34L29.58 7.34L29.58 6.63L29.58 6.06L29.58 6.06Q29.58 5.65 29.68 5.52L29.68 5.52L29.68 5.52Q29.79 5.41 30.02 5.41L30.02 5.41L30.02 5.41Q30.13 5.42 30.23 5.42L30.23 5.42L30.23 5.42Q30.33 5.41 30.41 5.41L30.41 5.41L30.41 5.41Q30.67 5.41 30.94 5.42L30.94 5.42L30.94 5.42Q31.21 5.43 31.49 5.45L31.49 5.45L31.49 5.45Q32.05 5.48 32.48 5.86L32.48 5.86ZM31.59 5.89L31.58 5.89L31.58 5.89L31.58 5.89Q31.48 5.87 31.34 5.87L31.34 5.87L31.34 5.87Q31.20 5.87 31.01 5.89L31.01 5.89L31.01 5.89Q30.68 5.91 30.50 5.88L30.50 5.88L30.50 5.88Q30.19 5.83 30.13 5.88L30.13 5.88L30.13 5.88Q30.02 5.95 30.02 6.17L30.02 6.17L30.02 6.17Q30.02 6.39 30.03 6.60L30.03 6.60L30.03 6.60Q30.04 6.82 30.02 7.02L30.02 7.02L30.02 7.02Q29.99 7.53 30.00 8.04L30.00 8.04L30.00 8.04Q30.01 8.54 30.01 9.04L30.01 9.04L30.01 9.04Q30.01 9.15 30.09 9.22L30.09 9.22L30.09 9.22Q30.17 9.30 30.41 9.26L30.41 9.26L30.41 9.26Q30.42 9.26 30.43 9.26L30.43 9.26L30.43 9.26Q30.44 9.26 30.45 9.26L30.45 9.26L30.45 9.26Q30.58 9.25 30.70 9.25L30.70 9.25L30.70 9.25Q30.82 9.26 30.93 9.26L30.93 9.26L30.93 9.26Q31.34 9.29 31.72 9.22L31.72 9.22L31.72 9.22Q32.10 9.14 32.31 8.72L32.31 8.72L32.31 8.72Q32.41 8.54 32.48 8.37L32.48 8.37L32.48 8.37Q32.55 8.20 32.59 8.02L32.59 8.02L32.59 8.02Q32.63 7.85 32.65 7.66L32.65 7.66L32.65 7.66Q32.66 7.48 32.63 7.26L32.63 7.26L32.63 7.26Q32.59 6.84 32.36 6.42L32.36 6.42L32.36 6.42Q32.25 6.22 32.05 6.09L32.05 6.09L32.05 6.09Q31.86 5.96 31.59 5.89L31.59 5.89ZM34.85 9.29L34.85 9.29L34.85 9.29Q34.84 8.87 34.85 8.46L34.85 8.46L34.85 8.46Q34.85 8.04 34.85 7.62L34.85 7.62L34.85 7.38L34.85 7.38Q34.85 7.20 34.84 7.01L34.84 7.01L34.84 7.01Q34.83 6.82 34.84 6.64L34.84 6.64L34.84 6.64Q34.85 6.43 34.85 6.23L34.85 6.23L34.85 6.23Q34.85 6.03 34.86 5.82L34.86 5.82L34.86 5.82Q34.86 5.58 34.97 5.48L34.97 5.48L34.97 5.48Q35.06 5.41 35.29 5.41L35.29 5.41L35.29 5.41Q35.40 5.41 35.49 5.40L35.49 5.40L35.49 5.40Q35.57 5.40 35.64 5.40L35.64 5.40L35.64 5.40Q35.90 5.39 36.17 5.40L36.17 5.40L36.17 5.40Q36.44 5.41 36.70 5.41L36.70 5.41L36.70 5.41Q36.85 5.40 36.99 5.40L36.99 5.40L36.99 5.40Q37.13 5.39 37.27 5.41L37.27 5.41L37.62 5.43L37.62 5.43Q37.68 5.43 37.72 5.43L37.72 5.43L37.72 5.43Q37.77 5.43 37.80 5.45L37.80 5.45L37.80 5.45Q37.95 5.52 37.94 5.66L37.94 5.66L37.94 5.66Q37.93 5.72 37.89 5.76L37.89 5.76L37.89 5.76Q37.85 5.80 37.80 5.82L37.80 5.82L37.80 5.82Q37.75 5.84 37.69 5.84L37.69 5.84L37.69 5.84Q37.64 5.85 37.60 5.85L37.60 5.85L37.60 5.85Q37.18 5.85 36.77 5.83L36.77 5.83L36.77 5.83Q36.73 5.82 36.67 5.82L36.67 5.82L36.67 5.82Q36.61 5.82 36.53 5.82L36.53 5.82L36.13 5.82L36.13 5.82Q35.98 5.82 35.85 5.83L35.85 5.83L35.85 5.83Q35.73 5.83 35.65 5.83L35.65 5.83L35.65 5.83Q35.53 5.84 35.46 5.86L35.46 5.86L35.46 5.86Q35.38 5.89 35.35 5.94L35.35 5.94L35.35 5.94Q35.29 6.02 35.31 6.15L35.31 6.15L35.31 6.15Q35.31 6.20 35.31 6.24L35.31 6.24L35.31 6.24Q35.31 6.28 35.30 6.32L35.30 6.32L35.30 6.32Q35.29 6.40 35.28 6.49L35.28 6.49L35.28 6.49Q35.27 6.58 35.28 6.69L35.28 6.69L35.28 6.69Q35.28 6.88 35.43 7.01L35.43 7.01L35.43 7.01Q35.55 7.12 35.88 7.10L35.88 7.10L35.88 7.10Q36.02 7.10 36.16 7.08L36.16 7.08L36.16 7.08Q36.30 7.06 36.44 7.07L36.44 7.07L36.44 7.07Q36.50 7.07 36.60 7.07L36.60 7.07L36.60 7.07Q36.70 7.08 36.84 7.07L36.84 7.07L36.84 7.07Q37.11 7.06 37.21 7.16L37.21 7.16L37.21 7.16Q37.24 7.21 37.24 7.32L37.24 7.32L37.24 7.32Q37.21 7.44 37.04 7.47L37.04 7.47L37.04 7.47Q36.89 7.50 36.79 7.50L36.79 7.50L36.79 7.50Q36.67 7.51 36.55 7.50L36.55 7.50L36.55 7.50Q36.43 7.50 36.31 7.51L36.31 7.51L36.31 7.51Q36.16 7.52 36.00 7.51L36.00 7.51L36.00 7.51Q35.84 7.51 35.67 7.49L35.67 7.49L35.67 7.49Q35.65 7.49 35.62 7.49L35.62 7.49L35.62 7.49Q35.59 7.49 35.57 7.49L35.57 7.49L35.57 7.49L35.57 7.49Q35.49 7.47 35.42 7.52L35.42 7.52L35.42 7.52Q35.29 7.59 35.28 7.78L35.28 7.78L35.28 7.78Q35.27 7.96 35.28 8.09L35.28 8.09L35.28 8.09Q35.29 8.16 35.29 8.22L35.29 8.22L35.29 8.22Q35.29 8.29 35.29 8.33L35.29 8.33L35.29 8.33Q35.27 8.44 35.26 8.53L35.26 8.53L35.26 8.53Q35.25 8.63 35.24 8.74L35.24 8.74L35.24 8.74Q35.22 9.00 35.31 9.13L35.31 9.13L35.31 9.13Q35.42 9.28 35.71 9.28L35.71 9.28L35.71 9.28Q35.94 9.28 36.17 9.27L36.17 9.27L36.17 9.27Q36.40 9.26 36.63 9.25L36.63 9.25L36.63 9.25Q36.85 9.24 37.07 9.26L37.07 9.26L37.07 9.26Q37.29 9.28 37.51 9.28L37.51 9.28L37.51 9.28Q37.59 9.28 37.73 9.28L37.73 9.28L37.73 9.28Q37.86 9.28 37.94 9.32L37.94 9.32L37.94 9.32Q38.01 9.36 38.01 9.44L38.01 9.44L38.01 9.44Q38.09 9.69 37.80 9.70L37.80 9.70L37.80 9.70Q37.35 9.72 36.92 9.71L36.92 9.71L36.92 9.71Q36.48 9.71 36.05 9.71L36.05 9.71L36.05 9.71Q36.02 9.71 35.99 9.72L35.99 9.72L35.99 9.72Q35.97 9.72 35.95 9.72L35.95 9.72L35.95 9.72Q35.79 9.72 35.68 9.72L35.68 9.72L35.68 9.72Q35.57 9.72 35.49 9.71L35.49 9.71L35.49 9.71Q35.44 9.71 35.38 9.71L35.38 9.71L35.38 9.71Q35.31 9.71 35.23 9.70L35.23 9.70L35.23 9.70Q35.16 9.69 35.12 9.69L35.12 9.69L35.12 9.69Q35.08 9.68 35.05 9.67L35.05 9.67L35.05 9.67Q34.85 9.61 34.85 9.29ZM40.32 6.24L40.32 6.24L40.32 6.24Q40.37 6.36 40.40 6.48L40.40 6.48L40.40 6.48Q40.43 6.60 40.47 6.73L40.47 6.73L40.47 6.73Q40.50 6.85 40.53 6.97L40.53 6.97L40.53 6.97Q40.57 7.10 40.63 7.21L40.63 7.21L40.63 7.21Q40.76 7.42 40.85 7.64L40.85 7.64L40.85 7.64Q40.94 7.85 41.04 8.07L41.04 8.07L41.19 8.37L41.19 8.37Q41.30 8.55 41.45 8.57L41.45 8.57L41.45 8.57Q41.66 8.59 41.82 8.24L41.82 8.24L41.82 8.24Q41.90 8.05 41.98 7.84L41.98 7.84L41.98 7.84Q42.05 7.63 42.12 7.42L42.12 7.42L42.12 7.42Q42.13 7.40 42.16 7.34L42.16 7.34L42.16 7.34Q42.19 7.27 42.26 7.16L42.26 7.16L42.26 7.16Q42.30 7.08 42.34 7.02L42.34 7.02L42.34 7.02Q42.38 6.95 42.41 6.90L42.41 6.90L42.41 6.90Q42.57 6.58 42.72 6.25L42.72 6.25L42.72 6.25Q42.88 5.91 43.00 5.56L43.00 5.56L43.00 5.56Q43.03 5.47 43.08 5.45L43.08 5.45L43.08 5.45Q43.13 5.43 43.31 5.50L43.31 5.50L43.31 5.50Q43.44 5.57 43.44 5.61L43.44 5.61L43.44 5.61Q43.46 5.67 43.41 5.77L43.41 5.77L43.41 5.77Q43.36 5.87 43.34 5.93L43.34 5.93L43.27 6.05L43.27 6.05Q43.21 6.16 43.16 6.27L43.16 6.27L43.16 6.27Q43.11 6.37 43.06 6.47L43.06 6.47L43.06 6.47Q42.96 6.66 42.89 6.85L42.89 6.85L42.89 6.85Q42.82 7.04 42.74 7.23L42.74 7.23L42.74 7.23Q42.55 7.64 42.37 8.04L42.37 8.04L42.37 8.04Q42.18 8.45 41.96 8.84L41.96 8.84L41.96 8.84Q41.87 9.00 41.80 9.21L41.80 9.21L41.80 9.21Q41.73 9.45 41.60 9.54L41.60 9.54L41.60 9.54Q41.55 9.58 41.48 9.59L41.48 9.59L41.48 9.59Q41.44 9.60 41.36 9.57L41.36 9.57L41.36 9.57Q41.31 9.55 41.27 9.50L41.27 9.50L41.27 9.50Q41.23 9.45 41.20 9.39L41.20 9.39L41.20 9.39Q41.17 9.33 41.15 9.27L41.15 9.27L41.15 9.27Q41.12 9.21 41.10 9.16L41.10 9.16L41.10 9.16Q40.95 8.93 40.82 8.65L40.82 8.65L40.82 8.65Q40.70 8.37 40.56 8.04L40.56 8.04L40.56 8.04Q40.46 7.82 40.37 7.59L40.37 7.59L40.37 7.59Q40.28 7.37 40.17 7.15L40.17 7.15L40.17 7.15Q40.12 7.08 40.02 6.77L40.02 6.77L40.02 6.77Q40.01 6.73 39.99 6.65L39.99 6.65L39.99 6.65Q39.97 6.58 39.93 6.49L39.93 6.49L39.93 6.49Q39.87 6.34 39.80 6.21L39.80 6.21L39.80 6.21Q39.73 6.07 39.66 5.93L39.66 5.93L39.66 5.93Q39.55 5.67 39.55 5.61L39.55 5.61L39.55 5.61Q39.57 5.48 39.69 5.43L39.69 5.43L39.69 5.43Q39.89 5.35 39.99 5.59L39.99 5.59L39.99 5.59Q40.07 5.76 40.15 5.92L40.15 5.92L40.15 5.92Q40.24 6.08 40.32 6.24ZM48.07 9.08L48.07 9.08L48.07 9.08Q47.95 9.23 47.85 9.34L47.85 9.34L47.85 9.34Q47.74 9.45 47.63 9.53L47.63 9.53L47.63 9.53Q47.51 9.60 47.37 9.66L47.37 9.66L47.37 9.66Q47.23 9.71 47.05 9.73L47.05 9.73L47.05 9.73Q46.96 9.74 46.87 9.74L46.87 9.74L46.87 9.74Q46.77 9.75 46.66 9.73L46.66 9.73L46.66 9.73Q46.51 9.72 46.37 9.72L46.37 9.72L46.37 9.72Q46.22 9.72 46.07 9.69L46.07 9.69L46.07 9.69Q45.75 9.61 45.53 9.46L45.53 9.46L45.53 9.46Q45.31 9.31 45.19 9.07L45.19 9.07L45.19 9.07Q45.04 8.74 45.36 8.73L45.36 8.73L45.36 8.73Q45.42 8.73 45.49 8.81L45.49 8.81L45.49 8.81Q45.56 8.89 45.60 8.93L45.60 8.93L45.60 8.93Q45.75 9.07 45.77 9.08L45.77 9.08L45.77 9.08L45.77 9.09L45.77 9.09Q46.11 9.32 46.66 9.32L46.66 9.32L46.67 9.32L46.68 9.32L46.68 9.32Q46.91 9.32 47.27 9.23L47.27 9.23L47.27 9.23Q47.63 9.14 47.74 8.87L47.74 8.87L47.74 8.87Q47.80 8.70 47.74 8.51L47.74 8.51L47.74 8.50L47.74 8.50Q47.57 8.14 47.08 8.02L47.08 8.02L46.24 7.80L46.24 7.80Q46.06 7.76 45.81 7.63L45.81 7.63L45.81 7.63Q45.68 7.56 45.58 7.51L45.58 7.51L45.58 7.51Q45.49 7.45 45.42 7.40L45.42 7.40L45.42 7.40Q45.14 7.19 45.10 6.99L45.10 6.99L45.10 6.99Q45.09 6.95 45.09 6.89L45.09 6.89L45.09 6.89Q45.09 6.83 45.09 6.74L45.09 6.74L45.09 6.74Q45.09 6.64 45.10 6.55L45.10 6.55L45.10 6.55Q45.12 6.46 45.13 6.36L45.13 6.36L45.13 6.36Q45.17 6.04 45.40 5.80L45.40 5.80L45.40 5.80Q45.50 5.69 45.65 5.62L45.65 5.62L45.65 5.62Q45.79 5.55 45.93 5.49L45.93 5.49L45.93 5.49Q46.12 5.40 46.33 5.40L46.33 5.40L46.33 5.40Q46.54 5.39 46.74 5.40L46.74 5.40L46.74 5.40Q47.41 5.42 47.79 5.87L47.79 5.87L47.79 5.87Q47.96 6.08 47.92 6.22L47.92 6.22L47.87 6.26L47.87 6.26Q47.76 6.32 47.61 6.19L47.61 6.19L47.61 6.19Q47.57 6.16 47.54 6.13L47.54 6.13L47.54 6.13Q47.50 6.09 47.47 6.06L47.47 6.06L47.47 6.06Q47.43 6.02 47.38 5.98L47.38 5.98L47.38 5.98Q47.33 5.95 47.26 5.91L47.26 5.91L47.24 5.90L47.22 5.90L47.22 5.90Q46.97 5.82 46.71 5.81L46.71 5.81L46.71 5.81Q46.44 5.80 46.16 5.86L46.16 5.86L46.16 5.86Q45.83 5.93 45.65 6.14L45.65 6.14L45.65 6.14Q45.47 6.34 45.47 6.67L45.47 6.67L45.47 6.69L45.48 6.70L45.48 6.70Q45.51 7.12 46.14 7.30L46.14 7.30L46.33 7.36L46.84 7.53L46.84 7.53Q46.96 7.57 47.07 7.62L47.07 7.62L47.07 7.62Q47.19 7.67 47.32 7.72L47.32 7.72L47.32 7.72Q47.51 7.81 47.67 7.90L47.67 7.90L47.67 7.90Q47.84 7.98 47.97 8.07L47.97 8.07L47.97 8.07Q48.07 8.13 48.12 8.22L48.12 8.22L48.12 8.22Q48.17 8.31 48.19 8.41L48.19 8.41L48.19 8.41Q48.21 8.51 48.20 8.62L48.20 8.62L48.20 8.62Q48.20 8.73 48.18 8.82L48.18 8.82L48.18 8.82Q48.17 8.89 48.14 8.96L48.14 8.96L48.14 8.96Q48.10 9.03 48.07 9.08Z"></path></g><!----><!----></svg>